<svg width="10" height="12" viewBox="0 0 10 12" fill="none" xmlns="http://www.w3.org/2000/svg">
<path d="M9 0H1.82143C1.7625 0 1.71429 0.0482143 1.71429 0.107143V0.857143C1.71429 0.916071 1.7625 0.964286 1.82143 0.964286H8.46429V10.1786C8.46429 10.2375 8.5125 10.2857 8.57143 10.2857H9.32143C9.38036 10.2857 9.42857 10.2375 9.42857 10.1786V0.428571C9.42857 0.191518 9.23705 0 9 0ZM7.28571 1.71429H0.428571C0.191518 1.71429 0 1.9058 0 2.14286V9.25045C0 9.36429 0.0455356 9.47277 0.125893 9.55312L2.44688 11.8741C2.47634 11.9036 2.50982 11.9277 2.54598 11.9478V11.9732H2.60223C2.64911 11.9906 2.69866 12 2.74955 12H7.28571C7.52277 12 7.71429 11.8085 7.71429 11.5714V2.14286C7.71429 1.9058 7.52277 1.71429 7.28571 1.71429ZM2.54464 10.6098L1.39152 9.45536H2.54464V10.6098ZM6.75 11.0357H3.40179V9.13393C3.40179 8.83795 3.16205 8.59821 2.86607 8.59821H0.964286V2.67857H6.75V11.0357Z" fill="#6C7576"/>
</svg>
