<svg width="15" height="16" viewBox="0 0 15 16" fill="none" xmlns="http://www.w3.org/2000/svg">
<path d="M14.8286 0.182255C14.7441 0.0981929 14.6374 0.0399917 14.521 0.0144941C14.4046 -0.0110034 14.2833 -0.00273731 14.1715 0.0383206L0.403862 5.04473C0.285128 5.08977 0.182904 5.16986 0.110769 5.27437C0.0386335 5.37888 0 5.50286 0 5.62985C0 5.75684 0.0386335 5.88083 0.110769 5.98534C0.182904 6.08985 0.285128 6.16994 0.403862 6.21498L6.41155 8.61805L8.81463 14.6257C8.85978 14.7393 8.93717 14.8371 9.03725 14.9071C9.13733 14.9772 9.25573 15.0164 9.37785 15.02C9.50431 15.0174 9.62702 14.9766 9.7298 14.9028C9.83258 14.8291 9.91061 14.7259 9.95359 14.607L14.96 0.839346C15.0026 0.728627 15.0129 0.608069 14.9896 0.491728C14.9664 0.375388 14.9105 0.268059 14.8286 0.182255ZM9.37785 12.642L7.63186 8.26135L10.6295 5.26376L9.74707 4.38138L6.72445 7.404L2.36888 5.63298L13.3392 1.67166L9.37785 12.642Z" fill="#4B9EFF"/>
</svg>
